<svg xmlns="http://www.w3.org/2000/svg" xmlns:xlink="http://www.w3.org/1999/xlink" viewBox="0 0 256 256"><defs><style>.cls-1{isolation:isolate;}.cls-2{fill:#fff;}.cls-3{fill:url(#linear-gradient);}.cls-4{fill:url(#linear-gradient-2);}.cls-5{fill:url(#linear-gradient-3);}.cls-6{mix-blend-mode:overlay;opacity:0.5;fill:url(#linear-gradient-4);}</style><linearGradient id="linear-gradient" x1="72.17" y1="102.04" x2="86.56" y2="205.3" gradientUnits="userSpaceOnUse"><stop offset="0" stop-color="#0051fe"/><stop offset="0.26" stop-color="#0178ff"/><stop offset="0.46" stop-color="#019eff"/><stop offset="0.59" stop-color="#019eff"/><stop offset="0.94" stop-color="#00d3ff"/></linearGradient><linearGradient id="linear-gradient-2" x1="146.25" y1="238.33" x2="101.35" y2="50.3" xlink:href="#linear-gradient"/><linearGradient id="linear-gradient-3" x1="133.24" y1="150.71" x2="242.72" y2="150.71" xlink:href="#linear-gradient"/><linearGradient id="linear-gradient-4" x1="133.24" y1="146.74" x2="233.25" y2="146.74" xlink:href="#linear-gradient"/></defs><g class="cls-1"><g id="Layer_2" data-name="Layer 2"><g id="Layer_1-2" data-name="Layer 1"><circle class="cls-2" cx="128" cy="128" r="128"/><path class="cls-3" d="M147.1,205.76c-1.51-.87-3-1.78-4.43-2.75-1-.64-1.9-1.3-2.84-2s-1.84-1.4-2.73-2.13l-1.32-1.11h0c-.74-.63-1.46-1.29-2.18-2l-.7-.67-.93-.9a70.45,70.45,0,0,1-16.7-26.4h-26v0H81.82c-29.29-.82-56.38-20.17-66-46.43v.28a64,64,0,0,0-2.49,18,68.71,68.71,0,0,0,68.54,68.54h69.93C150.17,207.42,148.62,206.61,147.1,205.76Z"/><path class="cls-4" d="M200.84,173.46a20.11,20.11,0,0,1,5.91,14.27V188a20.17,20.17,0,0,1-20.17,20.17h-4.7c-27.46,0-49.16-16.15-59.15-40.35a72.44,72.44,0,0,1-3-8.84A96.41,96.41,0,0,1,118,146.54V111.45H81.82a28.06,28.06,0,0,0-27.91,28.18A27.24,27.24,0,0,0,60,157.05a63.76,63.76,0,0,1-40.36-46.16,68.34,68.34,0,0,1,62.19-39.8H118V66.48a19.62,19.62,0,1,1,39.24,0v4.61h29.3a20.18,20.18,0,1,1,0,40.36h-29.3v27.9a28.28,28.28,0,0,0,28.2,28.2h1.11a20.16,20.16,0,0,1,6.93,1.22l.92.36,1.33.62c.43.24.87.47,1.27.72l.42.26c.41.26.81.54,1.2.83s.51.39.76.6C199.91,172.57,200.39,173,200.84,173.46Z"/><path class="cls-5" d="M231.85,113.76,242,109.23l-22.78-17-1.51,27.84,11-4.91a67.33,67.33,0,0,1-95.38,69.4,60.72,60.72,0,0,0,98.61-70.84Z"/><path class="cls-6" d="M233.25,133.57a67.31,67.31,0,0,0-14.07-41.29l-1.51,27.83,11-4.91a67.33,67.33,0,0,1-95.38,69.4A61,61,0,0,0,148.33,199a67.66,67.66,0,0,0,84.92-65.39Z"/></g></g></g></svg>