<?xml version="1.0" encoding="utf-8"?>
<!-- Generator: Adobe Illustrator 26.2.1, SVG Export Plug-In . SVG Version: 6.00 Build 0)  -->
<svg version="1.1" id="Layer_1" xmlns="http://www.w3.org/2000/svg" xmlns:xlink="http://www.w3.org/1999/xlink" x="0px" y="0px"
	 viewBox="0 0 320.4 320.4" style="enable-background:new 0 0 320.4 320.4;" xml:space="preserve">
<style type="text/css">
	.st0{fill:none;}
	.st1{fill:#FFFFFF;}
	.st2{fill:url(#SVGID_1_);}
	.st3{fill:url(#SVGID_00000100343386192420221450000001735315658106631077_);}
	.st4{fill:url(#SVGID_00000116193066399831491180000001591258931575027885_);}
	.st5{opacity:0.5;fill:url(#SVGID_00000150061800217933104350000011988283774998275733_);enable-background:new    ;}
</style>
<rect x="-282" y="46.1" class="st0" width="180" height="180"/>
<path class="st1" d="M-116.1,226.1h-151.8c-7.8,0-14.1-6.3-14.1-14.1V60.2c0-7.8,6.3-14.1,14.1-14.1h151.8c7.8,0,14.1,6.3,14.1,14.1
	V212C-102,219.8-108.3,226.1-116.1,226.1z"/>
<g>
	<g id="Layer_2_00000046322392211465660450000006768549910263272327_">
		<g id="Layer_1-2">
			<circle class="st1" cx="-192" cy="136.1" r="90"/>
			
				<linearGradient id="SVGID_1_" gradientUnits="userSpaceOnUse" x1="-231.2754" y1="204.1539" x2="-221.1556" y2="131.5448" gradientTransform="matrix(1 0 0 -1 0 322)">
				<stop  offset="0" style="stop-color:#0051FE"/>
				<stop  offset="0.26" style="stop-color:#0178FF"/>
				<stop  offset="0.46" style="stop-color:#019EFF"/>
				<stop  offset="0.59" style="stop-color:#019EFF"/>
				<stop  offset="0.94" style="stop-color:#00D3FF"/>
			</linearGradient>
			<path class="st2" d="M-178.6,190.8c-1.1-0.6-2.1-1.2-3.1-1.9c-0.7-0.4-1.3-0.9-2-1.4c-0.7-0.5-1.3-1-1.9-1.5l-0.9-0.8l0,0
				c-0.5-0.4-1-0.9-1.5-1.4c-0.2-0.2-0.3-0.3-0.5-0.5c-0.2-0.2-0.4-0.4-0.7-0.6c-5.3-5.2-9.3-11.6-11.7-18.5h-18.3l0,0h-5.2
				c-20.6-0.6-39.6-14.2-46.4-32.7v0.2c-1.2,4.1-1.8,8.4-1.8,12.6c0.1,26.6,21.6,48.1,48.2,48.2h49.2
				C-176.4,191.9-177.5,191.4-178.6,190.8z"/>
			
				<linearGradient id="SVGID_00000010274478138497641860000008283878250096042378_" gradientUnits="userSpaceOnUse" x1="-179.1879" y1="108.3214" x2="-210.7612" y2="240.5371" gradientTransform="matrix(1 0 0 -1 0 322)">
				<stop  offset="0" style="stop-color:#0051FE"/>
				<stop  offset="0.26" style="stop-color:#0178FF"/>
				<stop  offset="0.46" style="stop-color:#019EFF"/>
				<stop  offset="0.59" style="stop-color:#019EFF"/>
				<stop  offset="0.94" style="stop-color:#00D3FF"/>
			</linearGradient>
			<path style="fill:url(#SVGID_00000010274478138497641860000008283878250096042378_);" d="M-140.8,168.1c2.7,2.7,4.2,6.3,4.2,10
				v0.2c0,7.8-6.4,14.2-14.2,14.2h-3.3c-19.3,0-34.6-11.4-41.6-28.4c-0.8-2-1.6-4.1-2.1-6.2c-0.6-2.9-1-5.8-1.2-8.7v-24.7h-25.5
				c-10.9,0.1-19.7,8.9-19.6,19.8c0,4.5,1.5,8.8,4.3,12.2c-14.4-5.3-25.1-17.5-28.4-32.5c7.9-17.1,24.9-28,43.7-28h25.5v-3.3
				c0-7.6,6.2-13.8,13.8-13.8s13.8,6.2,13.8,13.8c0,0,0,0,0,0v3.3h20.6c7.8,0,14.2,6.4,14.2,14.2s-6.4,14.2-14.2,14.2l0,0h-20.6
				v19.6c0,10.9,8.9,19.8,19.8,19.8h0.8c1.7,0,3.3,0.3,4.9,0.9l0.6,0.3c0.3,0.1,0.6,0.3,0.9,0.4c0.3,0.2,0.6,0.3,0.9,0.5l0.3,0.2
				c0.3,0.2,0.6,0.4,0.8,0.6c0.2,0.1,0.4,0.3,0.5,0.4C-141.5,167.5-141.1,167.7-140.8,168.1z"/>
			
				<linearGradient id="SVGID_00000129191965645598868640000004389256003801869218_" gradientUnits="userSpaceOnUse" x1="-188.3367" y1="170.1756" x2="-111.356" y2="170.1756" gradientTransform="matrix(1 0 0 -1 0 322)">
				<stop  offset="0" style="stop-color:#0051FE"/>
				<stop  offset="0.26" style="stop-color:#0178FF"/>
				<stop  offset="0.46" style="stop-color:#019EFF"/>
				<stop  offset="0.59" style="stop-color:#019EFF"/>
				<stop  offset="0.94" style="stop-color:#00D3FF"/>
			</linearGradient>
			<path style="fill:url(#SVGID_00000129191965645598868640000004389256003801869218_);" d="M-119,126.1l7.1-3.2l-16-11.9l-1.1,19.6
				l7.7-3.5c3.3,25.9-15.1,49.6-41,52.9c-8.9,1.1-17.9-0.3-26-4.1c14.3,18.7,41.1,22.3,59.9,8C-110.5,170.2-106.4,144.8-119,126.1z"
				/>
			
				<linearGradient id="SVGID_00000048466113204716978730000008469169981259604927_" gradientUnits="userSpaceOnUse" x1="-188.3367" y1="172.7125" x2="-118.0145" y2="172.7125" gradientTransform="matrix(1 0 0 -1 0 322)">
				<stop  offset="0" style="stop-color:#0051FE"/>
				<stop  offset="0.26" style="stop-color:#0178FF"/>
				<stop  offset="0.46" style="stop-color:#019EFF"/>
				<stop  offset="0.59" style="stop-color:#019EFF"/>
				<stop  offset="0.94" style="stop-color:#00D3FF"/>
			</linearGradient>
			<path style="opacity:0.5;fill:url(#SVGID_00000048466113204716978730000008469169981259604927_);enable-background:new    ;" d="
				M-118,140c0-10.5-3.5-20.7-9.9-29l-1.1,19.6l7.7-3.5c3.3,25.9-15.1,49.6-41,52.9c-8.9,1.1-17.9-0.3-26-4.1
				c2.9,4,6.5,7.4,10.6,10.1c25.4,6.7,51.4-8.5,58.1-33.9C-118.5,148.2-118,144.1-118,140L-118,140z"/>
		</g>
	</g>
</g>
</svg>
