<svg width="69" height="62" viewBox="0 0 69 62" fill="none" xmlns="http://www.w3.org/2000/svg">
<path d="M5.55924 61.4835C1.8095 62.1857 0.592904 61.3489 0 57.5593L32.7014 1.31284C34.8133 -0.431946 36.0314 -0.406385 38.2607 1.31284L69 54.6162C68.9225 59.1544 67.8908 60.7 64.4218 61.8105H36.9526C34.551 60.4563 34.2928 59.4086 34.9905 57.2323L41.8578 45.1328C45.6943 43.9459 46.9672 44.8332 47.7441 49.0569L43.8199 54.9432H61.4787L35.6446 10.4692L5.55924 61.4835Z" fill="#63D1FA"/>
<path d="M32.7014 31.0711L17.6588 57.2322C17.9814 61.5133 19.3227 62.2249 23.545 60.8294L38.5877 34.9953C37.8322 30.9634 36.414 30.3138 32.7014 31.0711Z" fill="#63D1FA"/>
</svg>
