<svg xmlns="http://www.w3.org/2000/svg" xmlns:xlink="http://www.w3.org/1999/xlink" viewBox="0 0 320.35 320.35"><defs><style>.cls-1{isolation:isolate;}.cls-2{fill:#fff;}.cls-3{fill:url(#linear-gradient);}.cls-4{fill:url(#linear-gradient-2);}.cls-5{fill:url(#linear-gradient-3);}.cls-6{mix-blend-mode:overlay;opacity:0.5;fill:url(#linear-gradient-4);}</style><linearGradient id="linear-gradient" x1="90.31" y1="127.69" x2="108.32" y2="256.91" gradientUnits="userSpaceOnUse"><stop offset="0" stop-color="#0051fe"/><stop offset="0.26" stop-color="#0178ff"/><stop offset="0.46" stop-color="#019eff"/><stop offset="0.59" stop-color="#019eff"/><stop offset="0.94" stop-color="#00d3ff"/></linearGradient><linearGradient id="linear-gradient-2" x1="183.01" y1="298.24" x2="126.82" y2="62.94" xlink:href="#linear-gradient"/><linearGradient id="linear-gradient-3" x1="166.73" y1="188.59" x2="303.73" y2="188.59" xlink:href="#linear-gradient"/><linearGradient id="linear-gradient-4" x1="166.73" y1="183.62" x2="291.88" y2="183.62" xlink:href="#linear-gradient"/></defs><g class="cls-1"><g id="Layer_2" data-name="Layer 2"><g id="Layer_1-2" data-name="Layer 1"><circle class="cls-2" cx="160.17" cy="160.17" r="160.17"/><path class="cls-3" d="M184.08,257.47q-2.84-1.62-5.56-3.43-1.78-1.2-3.55-2.49t-3.41-2.67l-1.65-1.39h0c-.92-.79-1.84-1.61-2.73-2.45-.3-.27-.59-.56-.88-.84s-.77-.74-1.16-1.13a88,88,0,0,1-20.89-33H111.67v0h-9.28c-36.66-1-70.55-25.25-82.65-58.11v.35a80.06,80.06,0,0,0-3.12,22.48,86,86,0,0,0,85.77,85.77H189.9C187.91,259.56,186,258.55,184.08,257.47Z"/><path class="cls-4" d="M251.33,217.06a25.21,25.21,0,0,1,7.39,17.86v.34a25.25,25.25,0,0,1-25.25,25.24h-5.88c-34.35,0-61.52-20.22-74-50.49a92.49,92.49,0,0,1-3.81-11.07,121.92,121.92,0,0,1-2.08-15.57V139.46h-45.3a35.12,35.12,0,0,0-34.93,35.27,34.08,34.08,0,0,0,7.61,21.79,79.74,79.74,0,0,1-50.5-57.76A85.51,85.51,0,0,1,102.39,89h45.3V83.19a24.56,24.56,0,1,1,49.12,0V89h36.66a25.25,25.25,0,1,1,0,50.5H196.81v34.92a35.38,35.38,0,0,0,35.28,35.29h1.38a25.18,25.18,0,0,1,8.68,1.52l1.15.45c.57.25,1.12.51,1.67.78s1.08.59,1.59.9l.52.32c.51.33,1,.68,1.5,1,.32.24.64.49.95.75C250.16,216,250.76,216.49,251.33,217.06Z"/><path class="cls-5" d="M290.12,142.35l12.66-5.67-28.51-21.22-1.89,34.84,13.7-6.14A84.25,84.25,0,0,1,166.73,231a76,76,0,0,0,123.39-88.65Z"/><path class="cls-6" d="M291.88,167.14a84.24,84.24,0,0,0-17.61-51.67l-1.89,34.83,13.7-6.14A84.25,84.25,0,0,1,166.73,231a76.3,76.3,0,0,0,18.89,18,84.67,84.67,0,0,0,106.26-81.83Z"/></g></g></g></svg>