<svg xmlns="http://www.w3.org/2000/svg" xmlns:xlink="http://www.w3.org/1999/xlink" viewBox="0 0 38.17 26.85"><defs><style>.cls-1{isolation:isolate;}.cls-2{fill:url(#linear-gradient);}.cls-3{fill:url(#linear-gradient-2);}.cls-4{fill:url(#linear-gradient-3);}.cls-5{mix-blend-mode:overlay;opacity:0.5;fill:url(#linear-gradient-4);}</style><linearGradient id="linear-gradient" y1="19.62" x2="22.99" y2="19.62" gradientUnits="userSpaceOnUse"><stop offset="0" stop-color="#0051fe"/><stop offset="0.26" stop-color="#0178ff"/><stop offset="0.59" stop-color="#019eff"/><stop offset="0.59" stop-color="#019eff"/><stop offset="0.94" stop-color="#00d3ff"/></linearGradient><linearGradient id="linear-gradient-2" x1="1.06" y1="13.42" x2="32.23" y2="13.42" xlink:href="#linear-gradient"/><linearGradient id="linear-gradient-3" x1="19.73" y1="17.2" x2="38.17" y2="17.2" xlink:href="#linear-gradient"/><linearGradient id="linear-gradient-4" x1="19.73" y1="16.54" x2="36.58" y2="16.54" xlink:href="#linear-gradient"/></defs><g class="cls-1"><g id="Layer_2" data-name="Layer 2"><g id="Layer_1-2" data-name="Layer 1"><path class="cls-2" d="M22.22,26.45,21.49,26,21,25.66l-.45-.36-.22-.18h0L20,24.79l-.12-.11-.15-.15a11.69,11.69,0,0,1-2.77-4.39H11.38a12.26,12.26,0,0,1-11-7.73v0a10.85,10.85,0,0,0-.41,3A11.42,11.42,0,0,0,11.38,26.85H23C22.73,26.72,22.47,26.59,22.22,26.45Z"/><path class="cls-3" d="M31.2,21.07a3.36,3.36,0,0,1,1,2.38v0c.11,1.83.31,3-3.36,3.32l-.78,0a10.46,10.46,0,0,1-9.84-6.72,11.57,11.57,0,0,1-.51-1.47,16.29,16.29,0,0,1-.27-2.07V10.75h-6a4.67,4.67,0,0,0-4.64,4.69,4.54,4.54,0,0,0,1,2.9,10.6,10.6,0,0,1-6.71-7.68A11.37,11.37,0,0,1,11.4,4h6V3.27a3.27,3.27,0,0,1,6.53,0V4h4.87a3.38,3.38,0,0,1,3.36,3.36,3.36,3.36,0,0,1-3.36,3.36H24V15.4a4.7,4.7,0,0,0,4.69,4.69h.18a3.31,3.31,0,0,1,1.15.2l.16.06.22.1.21.12.07.05.2.14.13.09Z"/><path class="cls-4" d="M36.34,11.1l1.7-.75L34.21,7.56,34,12.15l1.85-.81a10.74,10.74,0,0,1,.09,1.4,11.22,11.22,0,0,1-11.34,11.1,11.55,11.55,0,0,1-4.82-1.05A10.06,10.06,0,0,0,28,26.84a9.7,9.7,0,0,0,10.22-10A10,10,0,0,0,36.34,11.1Z"/><path class="cls-5" d="M36.58,14.37a11,11,0,0,0-2.37-6.81L34,12.15l1.85-.81a10.74,10.74,0,0,1,.09,1.4,11.22,11.22,0,0,1-11.34,11.1,11.55,11.55,0,0,1-4.82-1.05,10.24,10.24,0,0,0,2.54,2.37,11.68,11.68,0,0,0,2.92.37A11.28,11.28,0,0,0,36.58,14.37Z"/></g></g></g></svg>