<svg xmlns="http://www.w3.org/2000/svg" xmlns:xlink="http://www.w3.org/1999/xlink" viewBox="0 0 362.3 256"><defs><style>.cls-1{fill:url(#linear-gradient);}.cls-2{fill:url(#linear-gradient-2);}.cls-3{fill:url(#linear-gradient-3);}.cls-4{isolation:isolate;opacity:0.5;fill:url(#linear-gradient-4);}</style><linearGradient id="linear-gradient" x1="93.03" y1="309.83" x2="115.77" y2="146.71" gradientTransform="matrix(1, 0, 0, -1, 0, 396.98)" gradientUnits="userSpaceOnUse"><stop offset="0" stop-color="#0051fe"/><stop offset="0.26" stop-color="#0178ff"/><stop offset="0.46" stop-color="#019eff"/><stop offset="0.59" stop-color="#019eff"/><stop offset="0.94" stop-color="#00d3ff"/></linearGradient><linearGradient id="linear-gradient-2" x1="209.95" y1="94.51" x2="139.03" y2="391.54" xlink:href="#linear-gradient"/><linearGradient id="linear-gradient-3" x1="189.56" y1="233.15" x2="362.51" y2="233.15" xlink:href="#linear-gradient"/><linearGradient id="linear-gradient-4" x1="189.5" y1="239.16" x2="347.41" y2="239.16" xlink:href="#linear-gradient"/></defs><g id="Layer_2" data-name="Layer 2"><g id="Layer_1-2" data-name="Layer 1"><g id="Layer_2-2" data-name="Layer 2"><g id="Layer_1-2-2" data-name="Layer 1-2"><path class="cls-1" d="M211.32,251c-2.39-1.37-4.74-2.81-7-4.34-1.58-1-3-2-4.49-3.16s-2.9-2.21-4.31-3.37l-2.09-1.75h0c-1.16-1-2.3-2-3.44-3.16l-1.1-1.06-1.47-1.42A111.16,111.16,0,0,1,161,191.05H108.19c-46.26-1.3-89.06-31.86-104.26-73.35v.45A101.21,101.21,0,0,0,0,146.58,108.54,108.54,0,0,0,108.27,254.85H218.74C216.17,253.64,213.72,252.36,211.32,251Z"/><path class="cls-2" d="M296.21,200a31.76,31.76,0,0,1,9.34,22.54V223a31.87,31.87,0,0,1-31.87,31.86h-7.42c-43.38,0-77.66-25.51-93.44-63.74a114.67,114.67,0,0,1-4.74-14,151.4,151.4,0,0,1-2.73-19.66V102H108.19a44.32,44.32,0,0,0-44.08,44.52,43,43,0,0,0,9.62,27.52A100.7,100.7,0,0,1,10,101.15a108,108,0,0,1,98.24-62.87h57.14V31a31,31,0,0,1,62,0v7.29h46.29a31.88,31.88,0,1,1,0,63.75h-46.3v44.08a44.68,44.68,0,0,0,44.55,44.54h1.76a31.88,31.88,0,0,1,10.94,1.93l1.46.57,2.1,1c.68.38,1.37.74,2,1.14l.67.41c.64.41,1.28.85,1.89,1.31s.81.61,1.2.95A20.73,20.73,0,0,1,296.21,200Z"/><path class="cls-3" d="M345.2,105.68l16-7.15-36-26.86-2.38,44,17.38-7.76A106.37,106.37,0,0,1,189.56,217.52a95.92,95.92,0,0,0,155.78-111.9Z"/><path class="cls-4" d="M347.41,137a106.4,106.4,0,0,0-22.23-65.23l-2.38,44L340.17,108A106.36,106.36,0,0,1,189.5,217.59a96.34,96.34,0,0,0,23.76,22.74A106.89,106.89,0,0,0,347.41,137Z"/></g></g></g></g></svg>