<svg id="Layer_1" data-name="Layer 1" xmlns="http://www.w3.org/2000/svg" xmlns:xlink="http://www.w3.org/1999/xlink" viewBox="0 0 256 256"><defs><style>.cls-1{fill:#fff;}.cls-2{fill:url(#linear-gradient);}.cls-3{fill:url(#linear-gradient-2);}.cls-4{fill:url(#linear-gradient-3);}.cls-5{isolation:isolate;opacity:0.5;fill:url(#linear-gradient-4);}</style><linearGradient id="linear-gradient" x1="72.22" y1="155.97" x2="86.61" y2="52.71" gradientTransform="matrix(1, 0, 0, -1, 0, 258)" gradientUnits="userSpaceOnUse"><stop offset="0" stop-color="#0051fe"/><stop offset="0.26" stop-color="#0178ff"/><stop offset="0.46" stop-color="#019eff"/><stop offset="0.59" stop-color="#019eff"/><stop offset="0.94" stop-color="#00d3ff"/></linearGradient><linearGradient id="linear-gradient-2" x1="146.24" y1="19.67" x2="101.34" y2="207.7" xlink:href="#linear-gradient"/><linearGradient id="linear-gradient-3" x1="133.33" y1="107.43" x2="242.81" y2="107.43" xlink:href="#linear-gradient"/><linearGradient id="linear-gradient-4" x1="133.29" y1="111.23" x2="233.25" y2="111.23" xlink:href="#linear-gradient"/></defs><g id="Layer_2" data-name="Layer 2"><g id="Layer_1-2" data-name="Layer 1-2"><rect class="cls-1" width="256" height="256" rx="31.16"/><path class="cls-2" d="M147.1,205.76c-1.51-.87-3-1.78-4.43-2.75-1-.64-1.9-1.3-2.84-2s-1.84-1.4-2.73-2.13l-1.32-1.11h0c-.74-.63-1.46-1.29-2.18-2l-.7-.67-.93-.9a70.46,70.46,0,0,1-16.7-26.4H81.82c-29.29-.82-56.38-20.17-66-46.43v.28a64.07,64.07,0,0,0-2.49,18,68.71,68.71,0,0,0,68.54,68.54H151.8C150.17,207.42,148.62,206.61,147.1,205.76Z"/><path class="cls-3" d="M200.84,173.46a20.11,20.11,0,0,1,5.91,14.27V188a20.17,20.17,0,0,1-20.17,20.17h-4.7c-27.46,0-49.16-16.15-59.15-40.35a72.4,72.4,0,0,1-3-8.84A96.43,96.43,0,0,1,118,146.54V111.45H81.82a28.05,28.05,0,0,0-27.91,28.18A27.25,27.25,0,0,0,60,157.05a63.77,63.77,0,0,1-40.36-46.16,68.33,68.33,0,0,1,62.19-39.8H118V66.48a19.62,19.62,0,0,1,39.24,0v4.61h29.3a20.18,20.18,0,0,1,0,40.36H157.24v27.9a28.27,28.27,0,0,0,28.2,28.2h1.11a20.23,20.23,0,0,1,6.93,1.22l.92.36,1.33.62c.43.24.87.47,1.27.72l.42.26c.41.26.81.54,1.2.83s.51.39.76.6A14.08,14.08,0,0,1,200.84,173.46Z"/><path class="cls-4" d="M231.85,113.76,242,109.23l-22.78-17-1.51,27.84,11-4.91a67.33,67.33,0,0,1-95.38,69.4,60.72,60.72,0,0,0,98.61-70.84Z"/><path class="cls-5" d="M233.25,133.57a67.36,67.36,0,0,0-14.07-41.29l-1.51,27.83,11-4.91a67.33,67.33,0,0,1-95.38,69.4,60.9,60.9,0,0,0,15,14.4,67.66,67.66,0,0,0,84.92-65.39Z"/></g></g></svg>