<svg xmlns="http://www.w3.org/2000/svg" xmlns:xlink="http://www.w3.org/1999/xlink" viewBox="0 0 38.17 27"><defs><style>.cls-1{isolation:isolate;}.cls-2{fill:url(#linear-gradient);}.cls-3{fill:url(#linear-gradient-2);}.cls-4{fill:url(#linear-gradient-3);}.cls-5{mix-blend-mode:overlay;opacity:0.5;fill:url(#linear-gradient-4);}</style><linearGradient id="linear-gradient" x1="9.8" y1="9.18" x2="12.19" y2="26.36" gradientUnits="userSpaceOnUse"><stop offset="0" stop-color="#0051fe"/><stop offset="0.26" stop-color="#0178ff"/><stop offset="0.46" stop-color="#019eff"/><stop offset="0.59" stop-color="#019eff"/><stop offset="0.94" stop-color="#00d3ff"/></linearGradient><linearGradient id="linear-gradient-2" x1="22.12" y1="31.86" x2="14.65" y2="0.57" xlink:href="#linear-gradient"/><linearGradient id="linear-gradient-3" x1="19.96" y1="17.28" x2="38.17" y2="17.28" xlink:href="#linear-gradient"/><linearGradient id="linear-gradient-4" x1="19.96" y1="16.62" x2="36.6" y2="16.62" xlink:href="#linear-gradient"/></defs><g class="cls-1"><g id="Layer_2" data-name="Layer 2"><g id="Layer_1-2" data-name="Layer 1"><path class="cls-2" d="M22.26,26.44,21.53,26l-.48-.33c-.15-.12-.3-.23-.45-.36l-.22-.18h0L20,24.78l-.12-.11-.16-.15A11.69,11.69,0,0,1,17,20.13H11.4a12.28,12.28,0,0,1-11-7.73v0a10.85,10.85,0,0,0-.41,3,11.43,11.43,0,0,0,11.4,11.4H23Z"/><path class="cls-3" d="M31.2,21.06a3.36,3.36,0,0,1,1,2.38v0a3.36,3.36,0,0,1-3.36,3.36h-.78a10.46,10.46,0,0,1-9.84-6.71,12.3,12.3,0,0,1-.51-1.48,16.06,16.06,0,0,1-.27-2.07V10.75h-6a4.67,4.67,0,0,0-4.64,4.69,4.53,4.53,0,0,0,1,2.89,10.6,10.6,0,0,1-6.71-7.68A11.36,11.36,0,0,1,11.4,4h6V3.26A3.22,3.22,0,0,1,17.69,2a3.26,3.26,0,0,1,6,0A3.22,3.22,0,0,1,24,3.26V4h4.87a3.38,3.38,0,0,1,3.36,3.36,3.37,3.37,0,0,1-3.36,3.36H24v4.64a4.7,4.7,0,0,0,4.69,4.69h.18a3.31,3.31,0,0,1,1.15.2l.16.06.22.11a2.25,2.25,0,0,1,.21.12l.07,0,.2.14.13.1Z"/><path class="cls-4" d="M36.36,11.13l1.69-.75L34.26,7.56,34,12.19l1.83-.82a13,13,0,0,1,.08,1.41A11.2,11.2,0,0,1,20,22.92a10.1,10.1,0,0,0,16.4-11.79Z"/><path class="cls-5" d="M36.6,14.43a11.24,11.24,0,0,0-2.34-6.87L34,12.19l1.83-.82a13,13,0,0,1,.08,1.41A11.2,11.2,0,0,1,20,22.92a10.19,10.19,0,0,0,2.51,2.39A11.27,11.27,0,0,0,36.6,14.43Z"/></g></g></g></svg>