<svg xmlns="http://www.w3.org/2000/svg" xmlns:xlink="http://www.w3.org/1999/xlink" viewBox="0 0 35.76 26.84"><defs><style>.cls-1{isolation:isolate;}.cls-2{fill:url(#linear-gradient);}.cls-3{fill:url(#linear-gradient-2);}.cls-4{fill:url(#linear-gradient-3);}.cls-5{mix-blend-mode:overlay;opacity:0.5;fill:url(#linear-gradient-4);}</style><linearGradient id="linear-gradient" y1="20" x2="21.36" y2="20" gradientUnits="userSpaceOnUse"><stop offset="0" stop-color="#0051fe"/><stop offset="0.26" stop-color="#0178ff"/><stop offset="0.59" stop-color="#019eff"/><stop offset="0.59" stop-color="#019eff"/><stop offset="0.94" stop-color="#00d3ff"/></linearGradient><linearGradient id="linear-gradient-2" x1="1.35" y1="13.34" x2="30.21" y2="13.34" xlink:href="#linear-gradient"/><linearGradient id="linear-gradient-3" x1="18.87" y1="17.83" x2="35.76" y2="17.83" xlink:href="#linear-gradient"/><linearGradient id="linear-gradient-4" x1="18.87" y1="17.21" x2="34.3" y2="17.21" xlink:href="#linear-gradient"/></defs><g class="cls-1"><g id="Layer_2" data-name="Layer 2"><g id="Layer_1-2" data-name="Layer 1"><path class="cls-2" d="M20.64,26.32c-.23-.14-.46-.28-.68-.43l-.44-.3-.42-.33-.21-.17h0l-.33-.31-.11-.1-.14-.14a10.76,10.76,0,0,1-2.58-4.07H10.57A11.37,11.37,0,0,1,.38,13.3v0A10.07,10.07,0,0,0,0,16.12,10.59,10.59,0,0,0,10.57,26.69H21.36Z"/><path class="cls-3" d="M29.3,21a3.44,3.44,0,0,1,.91,2.36v0a3.23,3.23,0,0,1-3.11,3.34h-.73c-4.23,0-7.58-2.67-9.12-6.68a13.11,13.11,0,0,1-.47-1.46,16.08,16.08,0,0,1-.25-2.06v-5.8H10.94a4.49,4.49,0,0,0-4.3,4.66,4.75,4.75,0,0,0,.93,2.88,10.34,10.34,0,0,1-6.22-7.64A10.53,10.53,0,0,1,10.94,4h5.59V3.25A3.35,3.35,0,0,1,16.77,2a2.95,2.95,0,0,1,5.56,0,3.36,3.36,0,0,1,.25,1.28V4H27.1a3,3,0,0,1,2.2,1,3.46,3.46,0,0,1,.91,2.36,3.23,3.23,0,0,1-3.11,3.34H22.58V15.3A4.53,4.53,0,0,0,26.93,20h.17a2.91,2.91,0,0,1,1.07.2l.14.06.21.1.19.12.07,0,.18.14.12.1A2.28,2.28,0,0,1,29.3,21Z"/><path class="cls-4" d="M34.08,12.13l1.56-.7L32.13,8.81l-.24,4.3,1.69-.76a9.36,9.36,0,0,1,.09,1.3,10.38,10.38,0,0,1-14.8,9.4A9.36,9.36,0,0,0,34.08,12.13Z"/><path class="cls-5" d="M34.3,15.18a10.4,10.4,0,0,0-2.17-6.37l-.24,4.3,1.69-.76a9.36,9.36,0,0,1,.09,1.3,10.38,10.38,0,0,1-14.8,9.4,9.28,9.28,0,0,0,2.33,2.22,10.68,10.68,0,0,0,2.67.34A10.43,10.43,0,0,0,34.3,15.18Z"/></g></g></g></svg>